<!-- Generated by IcoMoon.io -->
<svg version="1.1" xmlns="http://www.w3.org/2000/svg" width="32" height="32" viewBox="0 0 32 32">
<title>send</title>
<path fill="#e5e5e5" d="M0 0h32v32h-32v-32z"></path>
<path fill="#fff" d="M-1777.333-3828h2133.333v4024h-2133.333v-4024z"></path>
<path fill="#2f303a" d="M-1776-141.333h2133.333v337.333h-2133.333v-337.333z"></path>
<path fill="#2196f3" d="M-192-17.333h256c2.946 0 5.333 2.388 5.333 5.333v56c0 2.946-2.388 5.333-5.333 5.333h-256c-2.946 0-5.333-2.388-5.333-5.333v-56c0-2.946 2.388-5.333 5.333-5.333z"></path>
<path fill="#fff" d="M32 0l-32 18 10.227 3.788 15.773-14.788-11.998 16.186 0.010 0.004-0.012-0.004v8.814l5.735-6.691 7.265 2.691 5-28z"></path>
</svg>
